<?xml version="1.0" encoding="iso-8859-1"?>
<!DOCTYPE svg PUBLIC "-//W3C//DTD SVG 1.1 Basic//EN" "http://www.w3.org/Graphics/SVG/1.1/DTD/svg11-basic.dtd">
<svg version="1.1" baseProfile="basic"
   xmlns="http://www.w3.org/2000/svg" xmlns:xlink="http://www.w3.org/1999/xlink" x="0px" y="0px" width="32px" height="32px"
   viewBox="0 0 32 32" xml:space="preserve">
  <path transform="matrix(0.032,0,0,0.032,3,0)" stroke="none" style="fill:#2f3650" d="M 205 473 L 205 254 C 205 159 284 83 381 83 C 443 83 502 115 533 167 C 545 187 571 193 592 182 C 612 170 619 145 607 125 C 560 48 474 0 381 0 C 237 0 120 114 120 254 L 120 473 L 0 473 L 0 1000 L 763 1000 L 763 473 L 205 473 z M 425 752 L 425 867 L 338 867 L 338 752 C 315 738 299 713 299 685 C 299 641 336 605 381 605 C 427 605 463 641 463 685 C 463 713 448 738 425 752 z"/>
</svg>