<?xml version="1.0" encoding="iso-8859-1"?>
<!DOCTYPE svg PUBLIC "-//W3C//DTD SVG 1.1 Basic//EN" "http://www.w3.org/Graphics/SVG/1.1/DTD/svg11-basic.dtd">
<svg version="1.1" baseProfile="basic"
   xmlns="http://www.w3.org/2000/svg" xmlns:xlink="http://www.w3.org/1999/xlink" x="0px" y="0px" width="32px" height="32px"
   viewBox="0 0 32 32" xml:space="preserve">
  <path transform="matrix(0.032,0,0,0.032,0,2)" stroke="none" style="fill:#2f3650" d="M 870 339 L 797 416 L 797 875 L 888 875 L 888 357 z M 665 552 L 665 875 L 756 875 L 756 458 z M 556 665 L 536 686 L 536 875 L 627 875 L 627 592 z M 459 667 L 405 613 L 405 875 L 496 875 L 496 702 z M 270 693 L 270 875 L 362 875 L 362 600 z M 167 797 L 139 825 L 139 875 L 230 875 L 230 733 z M 1000 372 L 870 242 L 507 618 L 375 489 L 118 749 L 0 632 L 373 254 L 503 381 L 752 124 L 627 0 L 1000 0 z"/>
</svg>